{
	"asset":{
		"generator":"Khronos glTF Blender I/O v4.2.57",
		"version":"2.0"
	},
	"extensionsUsed":[
		"KHR_materials_emissive_strength"
	],
	"scene":0,
	"scenes":[
		{
			"name":"Scene",
			"nodes":[
				0,
				1,
				2,
				3,
				4,
				5,
				6,
				7,
				8
			]
		}
	],
	"nodes":[
		{
			"name":"Cylinder",
			"translation":[
				0,
				-0.02342854253947735,
				0
			]
		},
		{
			"mesh":0,
			"name":"Torus",
			"translation":[
				0,
				2.1657907962799072,
				0
			]
		},
		{
			"mesh":1,
			"name":"Plane",
			"rotation":[
				0.7071068286895752,
				0,
				0,
				0.7071068286895752
			],
			"translation":[
				-1.9908866882324219,
				1.2717037200927734,
				0
			]
		},
		{
			"mesh":2,
			"name":"Circle",
			"rotation":[
				0.6820542812347412,
				-0.18655280768871307,
				-0.18655285239219666,
				0.6820542812347412
			],
			"scale":[
				0.8659759163856506,
				0.8659759163856506,
				0.8659759163856506
			],
			"translation":[
				0.8597254753112793,
				3.7349352836608887,
				0
			]
		},
		{
			"mesh":3,
			"name":"Torus.001",
			"rotation":[
				0.7071068286895752,
				0,
				0,
				0.7071068286895752
			],
			"scale":[
				0.09742452204227448,
				0.09742452204227448,
				0.09742452204227448
			],
			"translation":[
				0,
				4.213212490081787,
				0
			]
		},
		{
			"mesh":4,
			"name":"Cylinder.001",
			"rotation":[
				0.21674036979675293,
				0.012127809226512909,
				0.016820885241031647,
				0.9760090112686157
			],
			"scale":[
				0.11957938224077225,
				0.11957939714193344,
				0.11957938969135284
			],
			"translation":[
				-0.025027018040418625,
				0.745261549949646,
				0.6578745245933533
			]
		},
		{
			"mesh":5,
			"name":"Plane.001",
			"scale":[
				8.31605052947998,
				8.31605052947998,
				8.31605052947998
			]
		},
		{
			"name":"Cylinder.002",
			"translation":[
				0,
				-0.02342854253947735,
				0
			]
		},
		{
			"mesh":6,
			"name":"Sphere",
			"scale":[
				0.22904427349567413,
				0.547221839427948,
				0.22904427349567413
			],
			"translation":[
				0,
				1.689522624015808,
				0
			]
		}
	],
	"materials":[
		{
			"doubleSided":true,
			"name":"copper",
			"pbrMetallicRoughness":{
				"roughnessFactor":0.25999999046325684
			}
		},
		{
			"doubleSided":true,
			"emissiveFactor":[
				1,
				0.3044980466365814,
				0.008545405231416225
			],
			"extensions":{
				"KHR_materials_emissive_strength":{
					"emissiveStrength":30
				}
			},
			"name":"light",
			"pbrMetallicRoughness":{
				"baseColorFactor":[
					0,
					0,
					0,
					1
				]
			}
		}
	],
	"meshes":[
		{
			"name":"Torus",
			"primitives":[
				{
					"attributes":{
						"POSITION":0,
						"NORMAL":1,
						"TEXCOORD_0":2
					},
					"indices":3,
					"material":0
				}
			]
		},
		{
			"name":"Plane",
			"primitives":[
				{
					"attributes":{
						"POSITION":4,
						"NORMAL":5,
						"TEXCOORD_0":6
					},
					"indices":7,
					"material":0
				}
			]
		},
		{
			"name":"Circle.001",
			"primitives":[
				{
					"attributes":{
						"POSITION":8,
						"NORMAL":9,
						"TEXCOORD_0":10
					},
					"indices":11,
					"material":0
				}
			]
		},
		{
			"name":"Torus.001",
			"primitives":[
				{
					"attributes":{
						"POSITION":12,
						"NORMAL":13,
						"TEXCOORD_0":14
					},
					"indices":3,
					"material":0
				}
			]
		},
		{
			"name":"Cylinder.001",
			"primitives":[
				{
					"attributes":{
						"POSITION":15,
						"NORMAL":16,
						"TEXCOORD_0":17
					},
					"indices":18,
					"material":0
				}
			]
		},
		{
			"name":"Plane.001",
			"primitives":[
				{
					"attributes":{
						"POSITION":19,
						"NORMAL":20,
						"TEXCOORD_0":21
					},
					"indices":22,
					"material":0
				}
			]
		},
		{
			"name":"Sphere",
			"primitives":[
				{
					"attributes":{
						"POSITION":23,
						"NORMAL":24,
						"TEXCOORD_0":25
					},
					"indices":26,
					"material":1
				}
			]
		}
	],
	"accessors":[
		{
			"bufferView":0,
			"componentType":5126,
			"count":637,
			"max":[
				0.6381491422653198,
				0.8149756789207458,
				0.8019734025001526
			],
			"min":[
				-0.6381583213806152,
				-0.8082189559936523,
				-0.8019732236862183
			],
			"type":"VEC3"
		},
		{
			"bufferView":1,
			"componentType":5126,
			"count":637,
			"type":"VEC3"
		},
		{
			"bufferView":2,
			"componentType":5126,
			"count":637,
			"type":"VEC2"
		},
		{
			"bufferView":3,
			"componentType":5123,
			"count":3456,
			"type":"SCALAR"
		},
		{
			"bufferView":4,
			"componentType":5126,
			"count":462,
			"max":[
				1.7878848314285278,
				0.23648309707641602,
				0.8326269388198853
			],
			"min":[
				0.7369802594184875,
				-0.23648275434970856,
				-2.442347764968872
			],
			"type":"VEC3"
		},
		{
			"bufferView":5,
			"componentType":5126,
			"count":462,
			"type":"VEC3"
		},
		{
			"bufferView":6,
			"componentType":5126,
			"count":462,
			"type":"VEC2"
		},
		{
			"bufferView":7,
			"componentType":5123,
			"count":2736,
			"type":"SCALAR"
		},
		{
			"bufferView":8,
			"componentType":5126,
			"count":154,
			"max":[
				0.12676067650318146,
				5.871108488264554e-09,
				0.1828245222568512
			],
			"min":[
				-0.12676067650318146,
				-0.06696320325136185,
				-0.12676067650318146
			],
			"type":"VEC3"
		},
		{
			"bufferView":9,
			"componentType":5126,
			"count":154,
			"type":"VEC3"
		},
		{
			"bufferView":10,
			"componentType":5126,
			"count":154,
			"type":"VEC2"
		},
		{
			"bufferView":11,
			"componentType":5123,
			"count":924,
			"type":"SCALAR"
		},
		{
			"bufferView":12,
			"componentType":5126,
			"count":637,
			"max":[
				1.1908401250839233,
				0.19084589183330536,
				1.750483512878418
			],
			"min":[
				-1.1908401250839233,
				-0.19084583222866058,
				-0.6311966776847839
			],
			"type":"VEC3"
		},
		{
			"bufferView":13,
			"componentType":5126,
			"count":637,
			"type":"VEC3"
		},
		{
			"bufferView":14,
			"componentType":5126,
			"count":637,
			"type":"VEC2"
		},
		{
			"bufferView":15,
			"componentType":5126,
			"count":384,
			"max":[
				1.25368332862854,
				1.1324679851531982,
				1.25368332862854
			],
			"min":[
				-1.25368332862854,
				-0.1937265396118164,
				-1.25368332862854
			],
			"type":"VEC3"
		},
		{
			"bufferView":16,
			"componentType":5126,
			"count":384,
			"type":"VEC3"
		},
		{
			"bufferView":17,
			"componentType":5126,
			"count":384,
			"type":"VEC2"
		},
		{
			"bufferView":18,
			"componentType":5123,
			"count":1524,
			"type":"SCALAR"
		},
		{
			"bufferView":19,
			"componentType":5126,
			"count":4,
			"max":[
				1,
				0,
				1
			],
			"min":[
				-1,
				0,
				-1
			],
			"type":"VEC3"
		},
		{
			"bufferView":20,
			"componentType":5126,
			"count":4,
			"type":"VEC3"
		},
		{
			"bufferView":21,
			"componentType":5126,
			"count":4,
			"type":"VEC2"
		},
		{
			"bufferView":22,
			"componentType":5123,
			"count":6,
			"type":"SCALAR"
		},
		{
			"bufferView":23,
			"componentType":5126,
			"count":1984,
			"max":[
				0.9999997019767761,
				1,
				0.9999993443489075
			],
			"min":[
				-0.9999990463256836,
				-1,
				-1
			],
			"type":"VEC3"
		},
		{
			"bufferView":24,
			"componentType":5126,
			"count":1984,
			"type":"VEC3"
		},
		{
			"bufferView":25,
			"componentType":5126,
			"count":1984,
			"type":"VEC2"
		},
		{
			"bufferView":26,
			"componentType":5123,
			"count":2880,
			"type":"SCALAR"
		}
	],
	"bufferViews":[
		{
			"buffer":0,
			"byteLength":7644,
			"byteOffset":0,
			"target":34962
		},
		{
			"buffer":0,
			"byteLength":7644,
			"byteOffset":7644,
			"target":34962
		},
		{
			"buffer":0,
			"byteLength":5096,
			"byteOffset":15288,
			"target":34962
		},
		{
			"buffer":0,
			"byteLength":6912,
			"byteOffset":20384,
			"target":34963
		},
		{
			"buffer":0,
			"byteLength":5544,
			"byteOffset":27296,
			"target":34962
		},
		{
			"buffer":0,
			"byteLength":5544,
			"byteOffset":32840,
			"target":34962
		},
		{
			"buffer":0,
			"byteLength":3696,
			"byteOffset":38384,
			"target":34962
		},
		{
			"buffer":0,
			"byteLength":5472,
			"byteOffset":42080,
			"target":34963
		},
		{
			"buffer":0,
			"byteLength":1848,
			"byteOffset":47552,
			"target":34962
		},
		{
			"buffer":0,
			"byteLength":1848,
			"byteOffset":49400,
			"target":34962
		},
		{
			"buffer":0,
			"byteLength":1232,
			"byteOffset":51248,
			"target":34962
		},
		{
			"buffer":0,
			"byteLength":1848,
			"byteOffset":52480,
			"target":34963
		},
		{
			"buffer":0,
			"byteLength":7644,
			"byteOffset":54328,
			"target":34962
		},
		{
			"buffer":0,
			"byteLength":7644,
			"byteOffset":61972,
			"target":34962
		},
		{
			"buffer":0,
			"byteLength":5096,
			"byteOffset":69616,
			"target":34962
		},
		{
			"buffer":0,
			"byteLength":4608,
			"byteOffset":74712,
			"target":34962
		},
		{
			"buffer":0,
			"byteLength":4608,
			"byteOffset":79320,
			"target":34962
		},
		{
			"buffer":0,
			"byteLength":3072,
			"byteOffset":83928,
			"target":34962
		},
		{
			"buffer":0,
			"byteLength":3048,
			"byteOffset":87000,
			"target":34963
		},
		{
			"buffer":0,
			"byteLength":48,
			"byteOffset":90048,
			"target":34962
		},
		{
			"buffer":0,
			"byteLength":48,
			"byteOffset":90096,
			"target":34962
		},
		{
			"buffer":0,
			"byteLength":32,
			"byteOffset":90144,
			"target":34962
		},
		{
			"buffer":0,
			"byteLength":12,
			"byteOffset":90176,
			"target":34963
		},
		{
			"buffer":0,
			"byteLength":23808,
			"byteOffset":90188,
			"target":34962
		},
		{
			"buffer":0,
			"byteLength":23808,
			"byteOffset":113996,
			"target":34962
		},
		{
			"buffer":0,
			"byteLength":15872,
			"byteOffset":137804,
			"target":34962
		},
		{
			"buffer":0,
			"byteLength":5760,
			"byteOffset":153676,
			"target":34963
		}
	],
	"buffers":[
		{
			"byteLength":159436,
			"uri":"lantern.bin"
		}
	]
}
